<svg xmlns="http://www.w3.org/2000/svg" viewBox="0 0 400 100" style="display: none;">
  <!-- ERPnext Icon -->
  <symbol id="icon-erpnext" viewBox="0 0 100 100">
    <rect x="20" y="20" width="60" height="60" rx="5" fill="none" stroke="#ff9500" stroke-width="2"/>
    <rect x="25" y="25" width="15" height="15" fill="#ff9500"/>
    <rect x="45" y="25" width="15" height="15" fill="#ff9500"/>
    <rect x="65" y="25" width="10" height="15" fill="#ff9500"/>
    <rect x="25" y="45" width="50" height="5" fill="#ff9500"/>
    <rect x="25" y="55" width="50" height="5" fill="#ff9500"/>
    <rect x="25" y="65" width="50" height="5" fill="#ff9500"/>
  </symbol>

  <!-- SAP FIORI Icon -->
  <symbol id="icon-fiori" viewBox="0 0 100 100">
    <circle cx="30" cy="30" r="12" fill="#ff9500"/>
    <circle cx="70" cy="30" r="12" fill="#ff9500"/>
    <circle cx="30" cy="70" r="12" fill="#ff9500"/>
    <circle cx="70" cy="70" r="12" fill="#ff9500"/>
    <line x1="30" y1="42" x2="30" y2="58" stroke="#ff9500" stroke-width="2"/>
    <line x1="70" y1="42" x2="70" y2="58" stroke="#ff9500" stroke-width="2"/>
    <line x1="42" y1="30" x2="58" y2="30" stroke="#ff9500" stroke-width="2"/>
    <line x1="42" y1="70" x2="58" y2="70" stroke="#ff9500" stroke-width="2"/>
  </symbol>

  <!-- SAP IoT Icon -->
  <symbol id="icon-iot" viewBox="0 0 100 100">
    <rect x="25" y="30" width="50" height="40" rx="3" fill="none" stroke="#ff9500" stroke-width="2"/>
    <circle cx="35" cy="50" r="4" fill="#ff9500"/>
    <circle cx="50" cy="50" r="4" fill="#ff9500"/>
    <circle cx="65" cy="50" r="4" fill="#ff9500"/>
    <path d="M 20 50 L 25 50" stroke="#ff9500" stroke-width="2"/>
    <path d="M 75 50 L 80 50" stroke="#ff9500" stroke-width="2"/>
    <circle cx="20" cy="50" r="3" fill="none" stroke="#ff9500" stroke-width="2"/>
    <circle cx="80" cy="50" r="3" fill="none" stroke="#ff9500" stroke-width="2"/>
  </symbol>

  <!-- Integracje Icon -->
  <symbol id="icon-integracje" viewBox="0 0 100 100">
    <rect x="15" y="25" width="25" height="25" rx="2" fill="none" stroke="#ff9500" stroke-width="2"/>
    <rect x="60" y="25" width="25" height="25" rx="2" fill="none" stroke="#ff9500" stroke-width="2"/>
    <rect x="15" y="50" width="25" height="25" rx="2" fill="none" stroke="#ff9500" stroke-width="2"/>
    <rect x="60" y="50" width="25" height="25" rx="2" fill="none" stroke="#ff9500" stroke-width="2"/>
    <line x1="40" y1="37" x2="60" y2="37" stroke="#ff9500" stroke-width="2"/>
    <line x1="40" y1="62" x2="60" y2="62" stroke="#ff9500" stroke-width="2"/>
    <line x1="27" y1="50" x2="27" y2="25" stroke="#ff9500" stroke-width="2"/>
    <line x1="72" y1="50" x2="72" y2="25" stroke="#ff9500" stroke-width="2"/>
  </symbol>

  <!-- EOD Icon -->
  <symbol id="icon-eod" viewBox="0 0 100 100">
    <path d="M 30 25 L 30 75 Q 30 80 35 80 L 65 80 Q 70 80 70 75 L 70 35 Q 70 30 65 30 L 35 30 Q 30 30 30 25" fill="none" stroke="#ff9500" stroke-width="2"/>
    <path d="M 40 40 L 60 40" stroke="#ff9500" stroke-width="2" stroke-linecap="round"/>
    <path d="M 40 50 L 60 50" stroke="#ff9500" stroke-width="2" stroke-linecap="round"/>
    <path d="M 40 60 L 60 60" stroke="#ff9500" stroke-width="2" stroke-linecap="round"/>
    <path d="M 40 70 L 55 70" stroke="#ff9500" stroke-width="2" stroke-linecap="round"/>
  </symbol>

  <!-- Magazyn Icon -->
  <symbol id="icon-magazyn" viewBox="0 0 100 100">
    <rect x="20" y="35" width="60" height="40" fill="none" stroke="#ff9500" stroke-width="2"/>
    <line x1="20" y1="45" x2="80" y2="45" stroke="#ff9500" stroke-width="2"/>
    <line x1="20" y1="55" x2="80" y2="55" stroke="#ff9500" stroke-width="2"/>
    <line x1="20" y1="65" x2="80" y2="65" stroke="#ff9500" stroke-width="2"/>
    <path d="M 30 35 L 35 20 L 65 20 L 70 35" stroke="#ff9500" stroke-width="2" fill="none"/>
  </symbol>

  <!-- Produkcja Icon -->
  <symbol id="icon-produkcja" viewBox="0 0 100 100">
    <rect x="25" y="40" width="50" height="35" fill="none" stroke="#ff9500" stroke-width="2"/>
    <circle cx="35" cy="55" r="5" fill="none" stroke="#ff9500" stroke-width="2"/>
    <circle cx="50" cy="55" r="5" fill="none" stroke="#ff9500" stroke-width="2"/>
    <circle cx="65" cy="55" r="5" fill="none" stroke="#ff9500" stroke-width="2"/>
    <path d="M 50 25 L 50 40" stroke="#ff9500" stroke-width="2"/>
    <path d="M 45 30 L 55 30" stroke="#ff9500" stroke-width="2"/>
  </symbol>
</svg>
