<svg xmlns="http://www.w3.org/2000/svg" viewBox="0 0 300 100" style="display: none;">
  <!-- Profesjonalizm Icon -->
  <symbol id="icon-profesjonalizm" viewBox="0 0 100 100">
    <circle cx="50" cy="50" r="45" fill="#fff3e0" stroke="#ff9500" stroke-width="2"/>
    <path d="M 50 20 L 60 35 L 75 35 L 65 45 L 70 60 L 50 50 L 30 60 L 35 45 L 25 35 L 40 35 Z" fill="#ff9500"/>
  </symbol>

  <!-- Współpraca Icon -->
  <symbol id="icon-wspolpraca" viewBox="0 0 100 100">
    <circle cx="50" cy="50" r="45" fill="#fff3e0" stroke="#ff9500" stroke-width="2"/>
    <circle cx="35" cy="35" r="8" fill="#ff9500"/>
    <circle cx="65" cy="35" r="8" fill="#ff9500"/>
    <path d="M 35 45 Q 35 55 50 60 Q 65 55 65 45" stroke="#ff9500" stroke-width="2" fill="none" stroke-linecap="round"/>
    <path d="M 25 70 Q 25 65 35 65 L 65 65 Q 75 65 75 70" stroke="#ff9500" stroke-width="2" fill="none" stroke-linecap="round"/>
  </symbol>

  <!-- Odpowiedzialność Icon -->
  <symbol id="icon-odpowiedzialnosc" viewBox="0 0 100 100">
    <circle cx="50" cy="50" r="45" fill="#fff3e0" stroke="#ff9500" stroke-width="2"/>
    <path d="M 50 25 L 70 35 L 70 55 Q 70 70 50 80 Q 30 70 30 55 L 30 35 Z" stroke="#ff9500" stroke-width="2" fill="none"/>
    <path d="M 45 50 L 50 55 L 60 45" stroke="#ff9500" stroke-width="2" fill="none" stroke-linecap="round" stroke-linejoin="round"/>
  </symbol>
</svg>
